<?xml version="1.0" encoding="utf-8"?>
<!-- Generator: Adobe Illustrator 23.1.1, SVG Export Plug-In . SVG Version: 6.00 Build 0)  -->
<svg version="1.1" id="レイヤー_1" xmlns="http://www.w3.org/2000/svg" xmlns:xlink="http://www.w3.org/1999/xlink" x="0px"
	 y="0px" viewBox="0 0 54 41.1" style="enable-background:new 0 0 54 41.1;" xml:space="preserve">
<style type="text/css">
	.st0{fill-rule:evenodd;clip-rule:evenodd;fill:#295A90;}
</style>
<path class="st0" d="M52.4,3.2C49,3.6,45.5,6,45.5,8.8c0,2.8,3.1,3.7,4,3.9c0.8,0.2,1.3,0.3,1.3,0.9c0,0.5-0.3,1-1,1
	c-0.7,0-6.1-0.9-6.1-5.6c0-2.3,1.2-4.3,4.3-5.8L40.7,4c-0.2,0-0.7,0.1-0.9,0.1c-0.6,0-0.8-0.5-0.8-1c0-0.6,0.4-0.8,0.9-0.9
	c0.3,0,1.5-0.1,1.7-0.1l10.8-0.7c0.2,0,0.5,0,0.6,0c0.3,0,0.9,0,0.9,0.9C53.9,3,53.4,3.1,52.4,3.2z M33.1,4.6
	c-0.3,0-0.5-0.2-0.8-0.6c-0.5-0.7-0.9-1.1-1.3-1.6c-0.2-0.2-0.3-0.3-0.3-0.5c0-0.5,0.5-0.8,0.9-0.7c0.4,0.1,1.2,1,1.7,1.7
	c0.6,0.7,0.6,0.9,0.6,1.1C33.9,4.2,33.5,4.6,33.1,4.6z M30.8,6c-0.3,0-0.4-0.2-0.8-0.6c-0.5-0.7-0.9-1.2-1.3-1.6
	c-0.2-0.2-0.3-0.4-0.3-0.5c0-0.5,0.5-0.8,0.9-0.7c0.4,0.1,1,0.8,1.3,1.2c0.3,0.4,1,1.2,1,1.5C31.6,5.6,31.2,6,30.8,6z M33.6,12.5
	c0,0.6-0.5,1-1,1c-0.5,0-0.9-0.4-1.7-1.2c-2.6-2.6-3.6-4-5.9-7.1c-0.3-0.4-0.5-0.7-0.8-0.7c-0.4,0-0.6,0.3-3.4,4.2
	c-0.7,1-0.9,1.1-1.3,1.1c-0.5,0-1.1-0.5-1.1-1c0-0.3,0.1-0.5,0.6-1c1.1-1.3,1.2-1.5,2.9-3.7c0.9-1.2,1.4-1.7,2.3-1.7
	c0.7,0,1.2,0.3,1.8,1.1c2.7,3.5,4.4,5.7,7,8.1C33.3,11.8,33.6,12.1,33.6,12.5z M14.4,3.8c-0.3,0-2.2,0-2.7,0l-1.5,0l0.1,5.3
	c0,0.8,0,2.5-1.3,4c-0.9,1-2.6,2.1-3.4,2.1c-0.6,0-1-0.5-1-1c0-0.4,0.3-0.6,1-0.9c0.4-0.2,2.2-1,2.6-2.5c-0.5,0.5-1.2,0.8-2,0.8
	c-1.8,0-3.2-1.3-3.2-3.3c0-2.1,1.6-3.4,3.4-3.4c1.1,0,1.7,0.5,2,0.7l0-1.7L3.6,4C3.2,4.1,1.4,4.1,1,4.1c-0.3,0-1,0-1-0.9
	c0-0.6,0.4-0.8,0.9-0.8c0.4,0,2.2,0,2.6,0l5-0.1l0-1.4C8.4,0.5,8.5,0,9.3,0c0.9,0,0.9,0.7,0.9,0.9l0,1.4l1.5,0c0.4,0,2-0.1,2.3-0.1
	c0.6,0,1,0.2,1,0.9C15,3.7,14.6,3.8,14.4,3.8z M6.6,6.4c-1,0-1.8,0.7-1.8,1.8c0,1.1,0.8,1.8,1.8,1.8c1.1,0,1.8-0.9,1.8-1.8
	C8.4,7.2,7.6,6.4,6.6,6.4z M0.9,29.2c0-1,0.8-1,1.1-1h9.1v-1.7H3.8c-0.7,0-1.1-0.3-1.1-1c0-0.8,0.6-1,1.1-1h7.3V23H2.7
	c-0.7,0-1.1-0.2-1.1-1.1c0-1,0.7-1,1.1-1h8.4v-1c0-0.9,0.6-1,1.4-1c0.8,0,1.2,0.3,1.2,1v1h8.4c0.5,0,1.1,0.1,1.1,1.1
	c0,1-0.8,1-1.1,1h-8.4v1.5H21c0.8,0,1.1,0.3,1.1,1c0,0.7-0.5,1-1.1,1h-7.3v1.7h9c0.5,0,1.1,0.1,1.1,1c0,1-0.7,1-1.1,1h-8.2
	c0.9,2,1.9,3.3,2,3.5c1.5-0.9,1.8-1.1,3.3-2.3c0.7-0.6,0.8-0.6,1.1-0.6c0.7,0,1.4,0.6,1.4,1.2c0,0.5-0.2,0.7-1.3,1.5
	c-1,0.7-2,1.3-3,1.9c1,0.9,2.3,2,4.5,3c0.8,0.4,1.2,0.6,1.2,1.2c0,0.7-0.5,1.4-1.3,1.4c-1,0-3.8-1.7-5.7-3.6c-2.4-2.2-3.5-4.5-4.5-7
	c-1.1,1.3-2.2,2.1-2.8,2.6v4.8c1.8-0.3,1.9-0.3,4.7-0.8c0.3,0,0.5-0.1,0.6-0.1c0.6,0,1,0.5,1,1.1c0,0.8-0.5,1-0.8,1
	c-0.1,0-2.1,0.4-2.4,0.5c-1.3,0.3-7.3,1.2-8.3,1.2c-1.1,0-1.1-1-1.1-1.3c0-0.9,0.7-1,1.1-1.1c0.4,0,2.4-0.3,2.8-0.3v-3.7
	c-1.2,0.6-3.7,1.9-4.7,1.9c-0.7,0-1.1-0.9-1.1-1.4c0-0.7,0.6-0.9,0.9-1c3.9-1.2,5.5-2.4,7.2-3.9H2.1C1.6,30.2,0.9,30.1,0.9,29.2z
	 M32.9,22.2c-0.3,0-1.2,0-1.2-1.2c0-1.2,0.9-1.2,1.2-1.2h17.4c0.3,0,1.2,0,1.2,1.2c0,1.2-0.9,1.2-1.2,1.2H32.9z M31.3,26.1h20.5
	c0.3,0,1.2,0,1.2,1.2c0,1.2-0.9,1.2-1.2,1.2h-8.9v9.8c0,2.8-1.5,2.8-4.4,2.8c-0.4,0-1.3,0-1.7-0.1c-0.9-0.2-1-1.1-1-1.3
	c0-1.2,0.9-1.2,1.4-1.2c0.3,0,1.7,0,1.9,0c0.5,0,1.1,0,1.1-0.9v-9.1h-9c-0.3,0-1.2,0-1.2-1.2C30.1,26.1,31,26.1,31.3,26.1z
	 M33.6,32.3c0.5-1.6,0.6-1.8,0.8-1.9c0.2-0.2,0.5-0.2,0.7-0.2c0.6,0,1.5,0.3,1.5,1.1c0,0.5-1,3.5-2.8,6.5c-1.1,1.9-1.5,2-2,2
	c-0.6,0-1.5-0.5-1.5-1.3c0-0.4,0-0.5,1.3-2.2C32.3,35.4,33.2,33.4,33.6,32.3z M47.9,30.1c0.7,0,0.9,0.6,1,0.8
	c0.5,1.4,1.3,3.6,2.6,5.4c1.2,1.8,1.2,1.8,1.2,2.2c0,0.7-0.8,1.3-1.5,1.3c-0.5,0-0.9-0.1-2-1.9c-1.8-3.1-2.9-5.9-2.9-6.6
	C46.4,30.1,47.8,30.1,47.9,30.1z"/>
</svg>
