<?xml version="1.0" encoding="utf-8"?>
<!-- Generator: Adobe Illustrator 23.1.1, SVG Export Plug-In . SVG Version: 6.00 Build 0)  -->
<svg version="1.1" id="レイヤー_1" xmlns="http://www.w3.org/2000/svg" xmlns:xlink="http://www.w3.org/1999/xlink" x="0px"
	 y="0px" viewBox="0 0 89 75" style="enable-background:new 0 0 89 75;" xml:space="preserve">
<style type="text/css">
	.st0{fill-rule:evenodd;clip-rule:evenodd;fill:#303030;}
	.st1{fill-rule:evenodd;clip-rule:evenodd;fill:#FEFEFE;}
</style>
<path class="st0" d="M89,37.5l-14.5,5.9C71.7,61.3,56.2,75,37.5,75C16.8,75,0,58.2,0,37.5S16.8,0,37.5,0c18.7,0,34.2,13.7,37,31.6
	L89,37.5z"/>
<path class="st1" d="M55.7,35.9c-0.4,0.1-1.6,0.1-2.1,0.1c-1.1,0-1.9,0-1.9-1.4c0-1.2,0.7-1.2,1.3-1.2h1.4c0.3-0.1,0.4-0.3,0.4-0.8
	V15.4c0-0.4,0-1.2,0.9-1.2c0.9,0,1,0.7,1,1.2v18.2C56.8,34.6,56.7,35.6,55.7,35.9z M52.3,31.1c-0.8,0-0.9-0.7-0.9-1.1V17
	c0-0.3,0-1.1,0.9-1.1c0.8,0,0.9,0.7,0.9,1.1v13C53.2,30.3,53.2,31.1,52.3,31.1z M50,17.4h-2.7C47.2,19,47,20.1,47,20.3h1.6
	c0.8,0,1.9,0,1.9,1.9c0,0.4-0.2,3.9-1.2,7c-0.9,2.6-2.3,5.1-3.8,6.5c-0.3,0.2-0.6,0.4-0.8,0.4c-0.6,0-1.1-0.7-1.1-1.3
	c0-0.5,0.3-0.8,0.6-1.2c2.1-2,2.8-3.9,3.2-4.8c-1-1.1-1.6-1.8-2.2-2.3c-0.4,0.7-0.8,1.6-1.3,1.6c-0.5,0-1-0.6-1-1.2
	c0-0.3,0.1-0.6,0.4-1.1c1.1-2.2,2-3.8,2.2-8.4h-0.7c-0.3,0-1,0-1-1.1c0-1.1,0.6-1.1,1-1.1H50c0.3,0,1,0,1,1.1
	C51,17.4,50.3,17.4,50,17.4z M45.9,24.7c0.8,0.7,1.4,1.2,2.1,2c0.4-1.8,0.6-3.4,0.6-3.5c0-0.6-0.4-0.6-0.7-0.6h-1.3
	C46.5,23.1,46.3,23.7,45.9,24.7z M42.6,35.2c0,0.3,0,1.1-0.9,1.1s-0.9-0.7-0.9-1.1V24.9c-0.4,0.8-0.6,1.1-1,1.1c-0.6,0-1-0.7-1-1.5
	c0-0.4,0.1-0.6,0.3-1c1-2.1,1.4-2.9,2-5c0.3-0.9,0.4-1.6,0.7-3.3c0.1-0.5,0.2-1,0.8-1c0.3,0,1,0.2,1,1c0,0.3-0.3,2.2-1,4.9V35.2z
	 M32.9,35.8c-2.5,0-3.5,0-3.5-2.6V18.4c0-0.6-0.3-1-0.8-1h-5.7c-0.6,0-0.8,0.4-0.8,1v6c0,2.5-0.3,5.4-1.2,8c0,0.1-1.3,3.7-2.5,3.7
	c-0.7,0-1.3-0.7-1.3-1.3c0-0.4,0.2-0.8,0.6-1.4c2-3.1,2.2-7,2.2-9.3v-6.3c0-2.1,0.7-2.8,2.3-2.8h6.9c1.6,0,2.3,0.7,2.3,2.8v14.7
	c0,0.9,0.5,0.9,0.8,0.9c1.1,0,1.1,0,1.2-2.3c0.1-1.9,0.1-2.4,0.9-2.4c1,0,1,0.9,1,1.5C35.5,35.8,34.6,35.8,32.9,35.8z M27.2,28.5
	c-0.5,0-0.7-0.3-1.3-1.6c-0.4-0.9-1.1-2.1-2.3-3.9c-0.4-0.6-0.5-0.8-0.5-1.1c0-0.8,0.8-1.2,1.2-1.2c0.6,0,1.4,1.2,2.2,2.6
	c0.6,0.9,1.9,3.1,1.9,4C28.4,28.1,27.5,28.5,27.2,28.5z M18.9,46.2h7.2v-4.4c0-0.6,0.1-1.2,1.1-1.2c0.8,0,1.1,0.4,1.1,1.2v4.4h5.9
	c0.4,0,1.1,0.1,1.1,1.3c0,0.9-0.5,1.3-1.1,1.3h-6c-0.1,5-1.1,7.4-3,9.5c-1.2,1.3-3,2.6-3.7,2.6c-0.7,0-1.1-0.8-1.1-1.4
	c0-0.6,0.2-0.7,1.1-1.3c3.7-2.6,4.3-4.9,4.5-9.3h-7.1c-0.3,0-1.1-0.1-1.1-1.3C17.8,46.5,18.3,46.2,18.9,46.2z M42.2,40.6
	c0.8,0,1.2,0.3,1.2,1.2v6.4c3.3-0.9,5.9-2,7.5-2.9c0.8-0.5,0.9-0.5,1.2-0.5c0.6,0,1.1,0.7,1.1,1.4c0,0.7-0.3,1-1.6,1.7
	c-3.1,1.6-6.5,2.5-8.1,2.9V55c0,2.2,0.4,2.6,5.4,2.6c1,0,3.2-0.1,5.1-0.2c0.6,0,0.7,0,0.8,0c0.3,0,1.1,0,1.1,1.2
	c0,0.6-0.2,1.1-0.7,1.3c-0.4,0.1-0.7,0.3-6.2,0.3c-4.6,0-7.7,0-7.7-4.6V41.9C41.1,41.4,41.1,40.6,42.2,40.6z M54.3,45.4
	c-0.4,0-0.5-0.2-0.8-1c-0.5-1.3-1-2-1.3-2.5c-0.1-0.2-0.2-0.4-0.2-0.6c0-0.7,0.7-1.1,1.1-0.9c0.6,0.2,2.2,3.5,2.2,4.1
	S54.7,45.4,54.3,45.4z M54.7,39.9c0-0.4,0.3-0.9,0.9-0.9c0,0,0.1,0,0.2,0c0.6,0.2,2.1,3.6,2.1,4.1c0,0.6-0.4,1-0.8,1
	c-0.5,0-0.6-0.2-0.8-1c-0.4-0.9-0.8-1.7-1.1-2.3C54.8,40.2,54.7,40.1,54.7,39.9z"/>
</svg>
