<?xml version="1.0" encoding="utf-8"?>
<!-- Generator: Adobe Illustrator 25.2.0, SVG Export Plug-In . SVG Version: 6.00 Build 0)  -->
<svg version="1.1" id="レイヤー_1" xmlns="http://www.w3.org/2000/svg" xmlns:xlink="http://www.w3.org/1999/xlink" x="0px"
	 y="0px" viewBox="0 0 54 41.1" style="enable-background:new 0 0 54 41.1;" xml:space="preserve">
<style type="text/css">
	.st0{fill:#295A90;}
</style>
<g>
	<path class="st0" d="M10.7,5.8C9.2,5,7.8,4.7,6.3,4.7c-0.7,0-1.2,0.2-1.6,0.5C4.4,5.5,4.2,5.9,4.2,6.5c0,1,0.7,1.7,2,2.2
		c1.9,0.6,3.2,1.3,3.9,2.1c0.7,0.8,1.1,1.8,1.1,3c0,2.9-1.8,4.4-5.4,4.4c-1.5,0-2.9-0.3-4.2-1v-2.6c1.2,0.9,2.6,1.3,3.9,1.3
		c1.8,0,2.7-0.7,2.7-2c0-0.5-0.2-1-0.5-1.4c-0.3-0.4-0.9-0.7-1.7-1c-1.7-0.6-2.9-1.2-3.6-2C1.6,8.6,1.3,7.6,1.3,6.5
		c0-1.3,0.4-2.3,1.3-3c0.9-0.7,2.1-1.1,3.6-1.1c1.7,0,3.2,0.3,4.5,0.8V5.8z"/>
	<path class="st0" d="M16.7,2.1v6.1h0c1-1,2.1-1.5,3.3-1.5c1.3,0,2.2,0.4,2.8,1.1c0.6,0.7,0.9,2,0.9,3.7v6.3h-2.7V12
		c0-1.2-0.1-2-0.4-2.4C20.3,9.2,19.8,9,19.1,9c-0.6,0-1.1,0.3-1.6,0.8s-0.8,1-0.8,1.6v6.5h-2.8V2.1H16.7z"/>
	<path class="st0" d="M27.1,8.3c0.9-1,2.2-1.5,3.9-1.5c1.7,0,3,0.5,3.9,1.5c0.9,1,1.4,2.4,1.4,4.2s-0.5,3.2-1.4,4.2
		c-0.9,1-2.2,1.5-3.9,1.5c-1.7,0-3-0.5-3.9-1.5c-0.9-1-1.4-2.4-1.4-4.2S26.2,9.2,27.1,8.3z M29.1,15.2c0.4,0.6,1,0.9,1.9,0.9
		s1.4-0.3,1.9-0.9c0.4-0.6,0.6-1.5,0.6-2.8c0-1.3-0.2-2.2-0.6-2.8c-0.4-0.6-1-0.9-1.9-0.9s-1.4,0.3-1.9,0.9
		c-0.4,0.6-0.6,1.5-0.6,2.8C28.5,13.7,28.7,14.6,29.1,15.2z"/>
	<path class="st0" d="M40.6,7l1.5,8.6h0L43.7,7h3.4l1.6,8.6h0L50.2,7H53l-2.7,10.9H47l-1.6-8.4h0l-1.6,8.4h-3.4L37.6,7H40.6z"/>
	<path class="st0" d="M5,38.9l5.8-17.5h3.6l5.8,17.5h-3.6l-1.2-4.2H9.6l-1.2,4.2H5z M10.4,32.1h4.4l-2.2-7.8h0L10.4,32.1z"/>
	<path class="st0" d="M26.2,21.4v14.7h7.7v2.8H22.7V21.4H26.2z"/>
	<path class="st0" d="M40.6,21.4v14.7h7.7v2.8H37.1V21.4H40.6z"/>
</g>
</svg>
