<?xml version="1.0" encoding="utf-8"?>
<!-- Generator: Adobe Illustrator 25.2.0, SVG Export Plug-In . SVG Version: 6.00 Build 0)  -->
<svg version="1.1" id="レイヤー_1" xmlns="http://www.w3.org/2000/svg" xmlns:xlink="http://www.w3.org/1999/xlink" x="0px"
	 y="0px" viewBox="0 0 89 75" style="enable-background:new 0 0 89 75;" xml:space="preserve">
<style type="text/css">
	.st0{fill-rule:evenodd;clip-rule:evenodd;fill:#303030;}
	.st1{fill:#FFFFFF;stroke:#FFFFFF;stroke-miterlimit:10;}
</style>
<path class="st0" d="M89,37.5l-14.5,5.9C71.7,61.3,56.2,75,37.5,75C16.8,75,0,58.2,0,37.5S16.8,0,37.5,0c18.7,0,34.2,13.7,37,31.6
	L89,37.5z"/>
<g>
	<path class="st1" d="M10.6,21.2v11.1h5.8v2.1H8V21.2H10.6z"/>
	<path class="st1" d="M20,30.4c0.1,0.9,0.3,1.5,0.8,1.9c0.4,0.4,1.1,0.6,2,0.6c0.7,0,1.6-0.2,2.7-0.5v1.8c-1,0.3-2,0.4-3,0.4
		c-1.6,0-2.8-0.4-3.6-1.2c-0.8-0.8-1.3-2-1.3-3.6c0-1.6,0.4-2.8,1.1-3.6c0.8-0.8,1.8-1.2,3.3-1.2c2.7,0,4.1,1.6,4.1,4.8
		c0,0.2,0,0.5-0.1,0.7H20z M20,28.8h3.9c0-1.5-0.6-2.3-1.8-2.3c-0.6,0-1.1,0.2-1.4,0.5C20.3,27.4,20.1,28,20,28.8z"/>
	<path class="st1" d="M36.4,25v8.6c0,3.2-1.6,4.9-4.9,4.9c-1,0-1.9-0.1-2.8-0.4v-2c0.9,0.4,1.8,0.5,2.8,0.5c0.9,0,1.5-0.2,1.9-0.7
		c0.4-0.5,0.6-1.2,0.6-2.3v-0.6h0c-0.7,0.8-1.6,1.2-2.7,1.2c-1.1,0-1.9-0.4-2.6-1.3c-0.7-0.8-1-2-1-3.5s0.3-2.6,1-3.5
		c0.6-0.8,1.5-1.2,2.6-1.2c0.6,0,1.1,0.1,1.5,0.3c0.4,0.2,0.9,0.6,1.3,1h0l0-1.2H36.4z M30.1,29.5c0,1,0.2,1.7,0.5,2.2
		s0.8,0.7,1.4,0.7c0.5,0,1-0.2,1.4-0.6c0.4-0.4,0.6-0.8,0.6-1.4v-1.9c0-0.6-0.2-1-0.6-1.4c-0.4-0.4-0.9-0.6-1.4-0.6
		C30.7,26.6,30.1,27.6,30.1,29.5z"/>
	<path class="st1" d="M40.6,30.4c0.1,0.9,0.3,1.5,0.8,1.9c0.4,0.4,1.1,0.6,2,0.6c0.7,0,1.6-0.2,2.7-0.5v1.8c-1,0.3-2,0.4-3,0.4
		c-1.6,0-2.8-0.4-3.6-1.2c-0.8-0.8-1.3-2-1.3-3.6c0-1.6,0.4-2.8,1.1-3.6c0.8-0.8,1.8-1.2,3.3-1.2c2.7,0,4.1,1.6,4.1,4.8
		c0,0.2,0,0.5-0.1,0.7H40.6z M40.6,28.8h3.9c0-1.5-0.6-2.3-1.8-2.3c-0.6,0-1.1,0.2-1.4,0.5C40.9,27.4,40.7,28,40.6,28.8z"/>
	<path class="st1" d="M48.7,25H51l0,1.2h0c0.8-0.9,1.8-1.4,2.9-1.4c1.1,0,1.9,0.3,2.4,0.9s0.7,1.6,0.7,3.1v5.5h-2.3V29
		c0-0.9-0.1-1.5-0.4-1.8c-0.2-0.3-0.7-0.5-1.3-0.5c-0.5,0-0.9,0.2-1.4,0.6c-0.4,0.4-0.6,0.9-0.6,1.4v5.7h-2.4V25z"/>
	<path class="st1" d="M65.4,20.9h2.4v13.5h-2.2l0-1.2h0c-0.4,0.5-0.9,0.8-1.3,1c-0.4,0.2-1,0.3-1.5,0.3c-1.1,0-2-0.4-2.7-1.3
		c-0.7-0.9-1.1-2.1-1.1-3.6c0-1.5,0.3-2.7,1-3.6c0.7-0.8,1.6-1.3,2.7-1.3c1,0,1.9,0.4,2.7,1.1h0V20.9z M61.3,29.7
		c0,1,0.2,1.8,0.6,2.3c0.4,0.5,0.9,0.8,1.5,0.8c0.6,0,1-0.2,1.5-0.6c0.4-0.4,0.6-0.8,0.6-1.3v-2.4c0-0.5-0.2-0.9-0.6-1.3
		c-0.4-0.4-0.9-0.6-1.5-0.6C62,26.6,61.3,27.6,61.3,29.7z"/>
	<path class="st1" d="M19.9,58.4V45.2h2.4l4.9,8.9h0v-8.9h2.4v13.1h-2.4l-4.9-8.9h0v8.9H19.9z"/>
	<path class="st1" d="M35.9,48.8c1.5,0,2.6,0.3,3.2,0.8c0.6,0.6,0.9,1.5,0.9,2.9v5.8h-2.2l0-1.3h0c-0.7,1-1.7,1.5-3,1.5
		c-0.8,0-1.5-0.3-2-0.8c-0.5-0.5-0.8-1.2-0.8-2.1c0-1,0.4-1.9,1.2-2.4c0.8-0.6,2-0.9,3.7-0.9h0.9v-0.3c0-0.6-0.1-0.9-0.4-1.2
		c-0.3-0.2-0.7-0.3-1.4-0.3c-1,0-2.1,0.2-3.4,0.6v-1.8C33.6,49,34.8,48.8,35.9,48.8z M37.7,53.9h-0.9c-1.7,0-2.6,0.5-2.6,1.6
		c0,0.4,0.1,0.7,0.3,0.9c0.2,0.2,0.5,0.4,0.9,0.4c0.7,0,1.2-0.2,1.7-0.6s0.6-1,0.6-1.8V53.9z"/>
	<path class="st1" d="M44,49l2.1,8h0l2.1-8h2.5l-3,9.4h-3.2l-3-9.4H44z"/>
	<path class="st1" d="M52.9,47v-2.2h2.5V47H52.9z M52.9,58.4V49h2.5v9.4H52.9z"/>
</g>
</svg>
